<?xml version="1.0" standalone="no"?>
<!DOCTYPE svg PUBLIC "-//W3C//DTD SVG 20010904//EN"
 "http://www.w3.org/TR/2001/REC-SVG-20010904/DTD/svg10.dtd">
<svg version="1.0" xmlns="http://www.w3.org/2000/svg"
 width="308.492951pt" height="244.816632pt" viewBox="0 0 308.492951 244.816632"
 preserveAspectRatio="xMidYMid meet">
<metadata>
Created by potrace 1.16, written by Peter Selinger 2001-2019
</metadata>
<g transform="translate(-130.007049,425.833593) scale(0.100000,-0.100000)"
fill="#000000" stroke="none">
<path d="M1307 4254 c-11 -11 -8 -152 3 -159 6 -3 10 -17 10 -30 0 -13 5 -27
10 -30 6 -3 10 -39 10 -78 1 -43 6 -82 15 -97 8 -14 14 -37 15 -52 0 -15 5
-30 10 -33 6 -3 10 -17 10 -30 0 -14 9 -40 20 -60 11 -20 20 -51 20 -70 0 -20
4 -43 9 -53 5 -9 17 -35 26 -57 9 -22 20 -47 25 -55 36 -57 60 -114 60 -144 0
-19 5 -38 10 -41 6 -3 10 -19 10 -35 0 -16 5 -32 10 -35 6 -3 10 -19 10 -34 0
-40 23 -80 75 -131 25 -24 45 -49 45 -56 0 -6 36 -47 80 -90 49 -48 87 -96 99
-124 11 -25 40 -66 65 -92 25 -27 55 -66 66 -88 12 -23 33 -48 49 -58 15 -9
79 -66 143 -126 63 -59 140 -122 171 -140 142 -78 265 -151 297 -177 22 -17
54 -30 85 -34 28 -4 64 -11 80 -15 17 -5 50 -14 75 -21 25 -7 49 -16 55 -21 5
-4 18 -8 29 -8 19 0 68 -14 111 -31 19 -7 43 -12 140 -25 22 -4 44 -10 50 -15
5 -5 21 -9 36 -9 15 0 31 -5 34 -10 3 -5 19 -10 35 -10 16 0 32 -5 35 -10 3
-6 21 -10 40 -10 19 0 37 -5 40 -10 3 -5 16 -10 29 -10 12 0 27 -5 34 -12 18
-18 401 -25 412 -8 4 6 26 14 49 17 22 3 41 10 41 14 0 5 25 9 55 9 30 0 55 4
55 9 0 5 42 13 93 17 l92 9 0 20 0 20 -99 -2 c-55 -2 -104 -7 -110 -13 -5 -5
-31 -10 -57 -10 -26 0 -51 -5 -54 -10 -3 -5 -18 -10 -33 -10 -15 0 -38 -7 -50
-16 l-23 -16 -167 4 -167 4 -38 22 c-21 12 -54 22 -77 22 -21 0 -42 5 -45 10
-3 6 -19 10 -35 10 -16 0 -32 5 -35 10 -3 6 -19 10 -35 10 -16 0 -32 4 -35 10
-3 5 -26 10 -50 10 -24 0 -47 5 -50 10 -3 6 -24 10 -45 10 -21 0 -42 4 -45 10
-3 5 -19 10 -35 10 -16 0 -32 5 -35 10 -3 5 -19 10 -35 10 -16 0 -32 5 -35 10
-3 6 -17 10 -30 10 -13 0 -27 5 -30 10 -3 6 -21 10 -40 10 -19 0 -36 4 -39 9
-3 5 -30 11 -60 13 -41 3 -65 13 -102 40 -27 19 -70 47 -95 60 -25 14 -79 46
-120 70 -41 25 -88 53 -105 61 -17 9 -86 68 -152 132 -67 63 -125 115 -130
115 -5 0 -19 23 -32 50 -13 28 -27 50 -31 50 -16 0 -73 69 -93 115 -15 32 -51
77 -99 125 -43 41 -77 80 -77 86 0 5 -13 23 -30 39 -16 16 -30 34 -30 40 0 6
-13 24 -30 40 -21 20 -30 38 -30 61 0 18 -4 36 -10 39 -5 3 -10 19 -10 35 0
16 -4 31 -9 34 -4 3 -11 26 -14 51 -7 46 -38 118 -63 143 -8 7 -14 22 -14 32
0 11 -9 35 -20 55 -11 20 -20 51 -20 70 0 19 -9 50 -20 70 -11 20 -20 46 -20
60 0 13 -4 27 -10 30 -5 3 -10 18 -10 33 -1 15 -7 38 -15 52 -9 15 -14 54 -15
97 0 39 -4 75 -10 78 -5 3 -10 16 -10 29 0 12 -4 26 -9 32 -6 5 -11 38 -13 74
-2 49 -7 66 -18 68 -9 1 -19 0 -23 -4z"/>
</g>
</svg>
